HIERARCHY
ROOT joint_Root
{
	OFFSET 0.0 0.0 0.0
	CHANNELS 6 Xposition Yposition Zposition Zrotation Xrotation Yrotation 
	JOINT Hips
	{
		OFFSET 4.5925 91.4895 -427.239
		CHANNELS 6 Xposition Yposition Zposition Zrotation Xrotation Yrotation 
		JOINT Spine
		{
			OFFSET 15.7357 0.0 0.0
			CHANNELS 6 Xposition Yposition Zposition Zrotation Xrotation Yrotation 
			JOINT Chest
			{
				OFFSET 8.98455 -0.406207 0.0
				CHANNELS 6 Xposition Yposition Zposition Zrotation Xrotation Yrotation 
				JOINT Neck
				{
					OFFSET 16.3773 0.0 0.0
					CHANNELS 6 Xposition Yposition Zposition Zrotation Xrotation Yrotation 
					JOINT Head
					{
						OFFSET 6.45672 0.0 0.0
						CHANNELS 6 Xposition Yposition Zposition Zrotation Xrotation Yrotation 
						End Site
						{
							OFFSET 0.0 0.0 0.0
						}
					}
				}
				JOINT Shoulder_L
				{
					OFFSET 12.9942 -0.242716 4.98039
					CHANNELS 6 Xposition Yposition Zposition Zrotation Xrotation Yrotation 
					JOINT UpperArm_L
					{
						OFFSET 5.34809 0.0 0.0
						CHANNELS 6 Xposition Yposition Zposition Zrotation Xrotation Yrotation 
						JOINT LowerArm_L
						{
							OFFSET 24.3286 1.87007e-05 0.0
							CHANNELS 6 Xposition Yposition Zposition Zrotation Xrotation Yrotation 
							JOINT Hand_L
							{
								OFFSET 22.2916 0.0 0.0
								CHANNELS 6 Xposition Yposition Zposition Zrotation Xrotation Yrotation 
								End Site
								{
									OFFSET 0.0 0.0 0.0
								}
							}
						}
					}
				}
				JOINT Shoulder_R
				{
					OFFSET 12.9945 -0.242716 -4.98039
					CHANNELS 6 Xposition Yposition Zposition Zrotation Xrotation Yrotation 
					JOINT UpperArm_R
					{
						OFFSET -5.34813 0.0 0.0
						CHANNELS 6 Xposition Yposition Zposition Zrotation Xrotation Yrotation 
						JOINT LowerArm_R
						{
							OFFSET -24.3289 0.000322201 0.0
							CHANNELS 6 Xposition Yposition Zposition Zrotation Xrotation Yrotation 
							JOINT Hand_R
							{
								OFFSET -22.2915 -0.000108084 0.0
								CHANNELS 6 Xposition Yposition Zposition Zrotation Xrotation Yrotation 
								End Site
								{
									OFFSET 0.0 0.0 0.0
								}
							}
						}
					}
				}
			}
		}
		JOINT UpperLeg_L
		{
			OFFSET -2.19248 -6.46944 0.0
			CHANNELS 6 Xposition Yposition Zposition Zrotation Xrotation Yrotation 
			JOINT LowerLeg_L
			{
				OFFSET 39.0811 0.0 -1.23785e-05
				CHANNELS 6 Xposition Yposition Zposition Zrotation Xrotation Yrotation 
				JOINT Foot_L
				{
					OFFSET 40.9854 0.0 -1.26872e-05
					CHANNELS 6 Xposition Yposition Zposition Zrotation Xrotation Yrotation 
					JOINT Toes_L
					{
						OFFSET 11.7543 0.0 0.0
						CHANNELS 6 Xposition Yposition Zposition Zrotation Xrotation Yrotation 
						End Site
						{
							OFFSET 0.0 0.0 0.0
						}
					}
				}
			}
		}
		JOINT UpperLeg_R
		{
			OFFSET -2.19251 6.46944 0.0
			CHANNELS 6 Xposition Yposition Zposition Zrotation Xrotation Yrotation 
			JOINT LowerLeg_R
			{
				OFFSET -39.0811 -0.00228153 -0.0401928
				CHANNELS 6 Xposition Yposition Zposition Zrotation Xrotation Yrotation 
				JOINT Foot_R
				{
					OFFSET -40.9854 0.0 0.0
					CHANNELS 6 Xposition Yposition Zposition Zrotation Xrotation Yrotation 
					JOINT Toes_R
					{
						OFFSET -11.7543 0.0 0.0
						CHANNELS 6 Xposition Yposition Zposition Zrotation Xrotation Yrotation 
						End Site
						{
							OFFSET 0.0 0.0 0.0
						}
					}
				}
			}
		}
	}
}
MOTION
Frames:	4
Frame Time:	0.0333333
0.000000 0.000000 0.000000 0.000000 0.000000 -0.000000 -5.094060 82.021000 0.130829 85.863200 -5.336170 12.534700 15.735700 0.000005 -0.000001 79.533300 80.023800 -79.830800 8.984550 -0.406207 -0.000000 11.861900 -3.604270 -0.220302 16.377300 -0.000001 -0.000001 -1.776140 -2.434420 1.232860 6.456720 -0.000001 -0.000000 -2.372590 0.770571 -1.681300 12.994200 -0.242716 4.980390 -90.580400 2.074440 -74.364800 5.348090 -0.000007 -0.000001 -64.897400 26.840600 -11.688100 24.328600 0.000019 0.000005 6.731240 16.162700 -22.973600 22.291600 -0.000001 0.000005 13.539000 5.097190 5.175740 12.994500 -0.242716 -4.980390 87.875300 11.692000 -79.624900 -5.348130 -0.000001 -0.000004 -60.855000 16.335400 -15.838400 -24.328900 0.000322 -0.000009 -5.433110 -17.028400 -17.979600 -22.291500 -0.000108 -0.000004 8.531450 5.053200 6.297350 -2.192480 -6.469440 -0.000000 -166.210000 -10.175300 -11.641700 39.081100 -0.000007 -0.000012 -0.638344 0.335370 62.285200 40.985400 -0.000006 -0.000013 -2.882680 5.596480 -86.680300 11.754300 -0.000000 0.000003 -0.000351 -0.002967 -16.687500 -2.192510 6.469440 -0.000001 -176.538000 10.075300 168.703000 -39.081100 -0.002282 -0.040193 0.087098 -0.046090 61.219700 -40.985400 0.000008 0.000006 10.478700 2.384640 -87.054800 -11.754300 -0.000006 -0.000006 -0.667552 -0.820074 -17.127400
0.000000 0.000000 0.000000 0.000000 0.000000 -0.000000 -5.862270 83.982100 0.906372 86.135200 -3.414520 12.007000 15.735700 0.000005 -0.000001 78.795200 81.202100 -80.576000 8.984550 -0.406207 -0.000000 9.455750 -3.425770 -3.276020 16.377300 -0.000001 -0.000001 -0.047197 -2.860670 0.587790 6.456720 -0.000001 -0.000000 -0.946658 -0.846335 0.556139 12.994200 -0.242716 4.980390 -90.603500 2.017590 -73.342200 5.348090 -0.000007 -0.000001 -64.911000 23.986400 -11.233900 24.328600 0.000019 0.000005 5.127990 14.114700 -20.201300 22.291600 -0.000001 0.000005 13.714900 5.090340 5.333370 12.994500 -0.242716 -4.980390 88.055900 10.170500 -79.117800 -5.348130 -0.000001 -0.000004 -58.457900 11.818200 -15.857200 -24.328900 0.000322 -0.000009 -2.508090 -11.293200 -12.584100 -22.291500 -0.000108 -0.000004 -1.543810 4.868770 10.015700 -2.192480 -6.469440 -0.000000 -166.198000 -9.600320 -9.150410 39.081100 -0.000007 -0.000012 -0.567869 0.380162 56.200900 40.985400 -0.000006 -0.000013 -3.037320 6.736260 -83.827400 11.754300 -0.000000 0.000003 -0.000289 -0.002523 -16.671600 -2.192510 6.469440 -0.000001 -176.876000 12.217100 171.695000 -39.081100 -0.002282 -0.040193 0.083354 -0.055427 55.327300 -40.985400 0.000008 0.000006 10.731700 3.123960 -84.527300 -11.754300 -0.000006 -0.000006 -0.849939 -1.042680 -17.385300
0.000000 0.000000 0.000000 0.000000 0.000000 -0.000000 -6.426470 86.226300 1.495120 86.569700 -1.752290 10.286000 15.735700 0.000005 -0.000001 76.888900 82.799600 -80.254900 8.984550 -0.406207 -0.000000 6.181220 -3.211080 -6.551970 16.377300 -0.000001 -0.000001 2.499410 -3.346120 0.414137 6.456720 -0.000001 -0.000000 0.640774 -2.145710 2.942830 12.994200 -0.242716 4.980390 -90.465300 1.467570 -72.405400 5.348090 -0.000007 -0.000001 -65.026500 21.026300 -9.638290 24.328600 0.000019 0.000005 4.789290 13.650500 -19.545700 22.291600 -0.000001 0.000005 12.891100 5.118690 4.680530 12.994500 -0.242716 -4.980390 88.435100 7.732100 -78.520300 -5.348130 -0.000001 -0.000004 -53.801400 3.396710 -17.822100 -24.328900 0.000322 -0.000009 -1.169340 -6.763240 -9.824270 -22.291500 -0.000108 -0.000004 -7.096730 4.860480 10.155400 -2.192480 -6.469440 -0.000000 -166.706000 -9.610150 -7.184760 39.081100 -0.000007 -0.000012 -0.479094 0.422590 48.586900 40.985400 -0.000006 -0.000013 -3.240380 7.701220 -80.062100 11.754300 -0.000000 0.000003 -0.000192 -0.001789 -16.645100 -2.192510 6.469440 -0.000001 -177.256000 14.356700 173.886000 -39.081100 -0.002282 -0.040193 0.073554 -0.063022 48.124500 -40.985400 0.000008 0.000006 10.866800 4.471180 -80.992400 -11.754300 -0.000006 -0.000006 -0.945625 -1.152490 -17.851800
0.000000 0.000000 0.000000 0.000000 0.000000 -0.000000 -6.713200 88.128800 1.848920 86.458400 -0.360290 8.428490 15.735700 0.000005 -0.000001 72.884300 84.105000 -77.312800 8.984550 -0.406207 -0.000000 3.394690 -3.297290 -8.751100 16.377300 -0.000001 -0.000001 4.520480 -3.944690 0.103316 6.456720 -0.000001 -0.000000 1.873750 -3.117750 4.831660 12.994200 -0.242716 4.980390 -90.389500 1.174950 -71.659600 5.348090 -0.000007 -0.000001 -64.693600 19.135400 -7.789440 24.328600 0.000019 0.000005 4.904520 13.549800 -20.115200 22.291600 -0.000001 0.000005 12.193600 5.122730 4.587810 12.994500 -0.242716 -4.980390 88.803700 5.491800 -77.687400 -5.348130 -0.000001 -0.000004 -46.392000 -8.374360 -23.425900 -24.328900 0.000322 -0.000009 -1.674830 -9.924220 -9.619110 -22.291500 -0.000108 -0.000004 -1.755290 4.857130 10.257500 -2.192480 -6.469440 -0.000000 -166.905000 -9.695480 -5.735920 39.081100 -0.000007 -0.000012 -0.375616 0.424279 41.519500 40.985400 -0.000006 -0.000013 -3.466020 8.336380 -76.439800 11.754300 -0.000000 0.000003 -0.000144 -0.001400 -16.630800 -2.192510 6.469440 -0.000001 -177.292000 17.175800 175.456000 -39.081100 -0.002282 -0.040193 0.064774 -0.069602 41.463800 -40.985400 0.000008 0.000006 10.859600 6.742980 -76.949700 -11.754300 -0.000006 -0.000006 -1.430710 -1.723870 -18.607700
